<?xml version="1.0" encoding="utf-8"?>
<!-- Generator: Adobe Illustrator 20.1.0, SVG Export Plug-In . SVG Version: 6.00 Build 0)  -->
<svg version="1.1" id="Layer_1" xmlns="http://www.w3.org/2000/svg" xmlns:xlink="http://www.w3.org/1999/xlink" x="0px" y="0px"
	 viewBox="0 0 200 46.6" style="enable-background:new 0 0 200 46.6;" xml:space="preserve">
<style type="text/css">
	.st0{fill:#FFFFFF;}
	.st1{fill:none;stroke:#F6F3EA;stroke-width:0.2912;stroke-linecap:round;stroke-linejoin:round;stroke-miterlimit:10;}
</style>
<g>
	<path class="st0" d="M54.4,5c0.4,0.3,0.6,0.8,0.4,1.3c0,0.1-4.8,11.3-6,15.1c-1.2,3.8-2.2,8.3-2.2,8.4c-0.1,0.5-0.7,0.9-1.2,0.8
		c-0.5-0.1-0.9-0.7-0.8-1.2c0,0,1-4.6,2.2-8.6c0.6-2,2.2-5.8,3.5-9.1c-1.5,1.9-3.3,4.1-4.9,6.4c-1.5,2.1-6.6,9.7-6.7,9.7
		c-0.3,0.4-0.9,0.6-1.3,0.3c-0.4-0.2-0.7-0.8-0.5-1.3c0,0,0.8-2.3,2.2-6.1c0.8-2.2,2.6-6.7,4-10.2c-1.9,2.1-4.2,4.8-6.2,7.6
		l-0.3,0.4c-4,5.7-7.9,11.1-11,13c-0.2,0.1-0.4,0.1-0.5,0.1c-0.3,0-0.7-0.2-0.9-0.5c-0.3-0.5-0.1-1.1,0.4-1.4
		c2.7-1.7,6.6-7.1,10.4-12.4l0.3-0.4c4.4-6.1,10.2-11.8,10.2-11.8c0.3-0.3,0.9-0.4,1.3-0.1c0.4,0.3,0.6,0.8,0.4,1.3
		c0,0.1-3.5,8.6-5.4,13.4c0.8-1.2,1.5-2.2,2-2.8C48,10.7,53,5.2,53.1,5.2C53.4,4.8,54,4.7,54.4,5L54.4,5z"/>
	<path class="st0" d="M61.3,24.3c0.4,0.3,0.6,1,0.3,1.4c-1.5,2.2-3,3.5-4.5,3.5c-0.2,0-0.5,0-0.7-0.1l-0.1,0c-0.1,0-0.9-0.3-1.3-1.2
		c-0.9,0.8-1.9,1.3-2.8,1.3c-0.4,0-0.7-0.1-1-0.2c-0.5-0.2-1.6-1.1-1-3.4c0.4-1.4,1.3-2.4,2-3.1c1.3-1.3,3.1-1.8,4.3-1.2
		c0.1,0.1,0.3,0.2,0.4,0.3c0.3-0.5,0.9-0.7,1.4-0.4c0.5,0.2,0.7,0.9,0.4,1.4c-0.4,0.8-0.9,1.6-1.2,2.2c-0.2,0.4-0.3,0.7-0.4,0.8
		c-0.3,0.6-0.4,1.1-0.3,1.4c0,0.1,0.1,0.2,0.2,0.2c0.5,0,1.6-0.8,2.9-2.6C60.1,24.1,60.8,24,61.3,24.3L61.3,24.3z M52.1,27.1
		c0.2,0.1,1.1-0.2,2.1-1.4c0.4-0.5,1-1.4,1.6-2.4c-0.2-0.1-0.8-0.7-2.2,0.7c-0.6,0.6-1.2,1.3-1.4,2.2C52,26.8,52.1,27.1,52.1,27.1
		L52.1,27.1z"/>
	<path class="st0" d="M72.9,24.2c0.4,0.3,0.6,1,0.3,1.4c-1.8,2.8-4,3.8-5.7,3.8c-0.3,0-0.6,0-0.8-0.1L59,43.9
		c-0.2,0.3-0.6,0.6-0.9,0.6c-0.2,0-0.3,0-0.5-0.1c-0.5-0.2-0.7-0.9-0.4-1.4l7.2-13.7c-0.3,0-0.6,0-0.8-0.1c-1.1-0.3-1.8-1.2-1.8-2.4
		c0-1,0.5-2,0.6-2.3c0.4-0.7,0.7-1.3,0.9-1.6c-0.4,0.7-1.1,1.8-1.7,2.8l0,0.1c-0.3,0.5-1,0.7-1.4,0.4c-0.5-0.3-0.7-1-0.4-1.4l0-0.1
		c1.6-2.9,2.5-4.5,3.9-4.5c1.1,0,1.9,0.9,1.9,2c0,0.4-0.1,0.8-0.3,1.3c0,0-0.1,0.1-0.1,0.2c0,0-0.4,0.7-0.9,1.7
		c-0.3,0.6-0.4,1.1-0.4,1.4c0,0.3,0,0.3,0.3,0.3c0.1,0,0.1,0,0.2,0c1,0,2-1.7,2.4-2.3l0.1-0.1l1.7-3.1c0.2-0.5,0.9-0.7,1.4-0.4
		c0.5,0.2,0.7,0.9,0.5,1.4c0,0.1-0.8,1.7-1.7,3.3l-0.8,1.6c1.1-0.1,2.5-0.8,3.7-2.8C71.7,24.1,72.4,23.9,72.9,24.2L72.9,24.2z"/>
	<path class="st0" d="M95.6,25c0.4,0.3,0.5,1.1,0.1,1.5c-0.6,0.7-2.1,2-4.4,2c-1.8,0-2.6-0.5-3.3-1c-0.6-0.4-1-0.6-2.2-0.6
		c-2.5,0-4.1,1.8-4.1,1.9c-0.2,0.2-0.5,0.4-0.8,0.4c0,0,0,0-0.1,0c0,0,0,0,0,0c-0.2,0-0.4-0.1-0.5-0.2c0,0,0,0,0,0c0,0,0,0-0.1,0
		c-0.2-0.2-0.3-0.4-0.3-0.7c0-0.2,0-0.5,0.1-0.7l0.4-0.5c1.9-2.9,3.5-5.2,9.6-7.5c4.2-1.6,6.3-4.9,6-7.1c-0.2-1.4-1.5-2.2-3.6-2.3
		c-1.7,0-2.9,0.4-3.8,1.3c-1.7,1.7-1.7,4.6-1.7,4.6c0,0.5-0.5,1-1,1l0-0.3V17c-0.5,0-1-0.5-1-1c0-0.1,0-3.7,2.4-6.1
		c1.3-1.3,3.2-2,5.4-1.9c3,0.1,5.2,1.6,5.6,4c0.5,3-1.9,7.3-7.3,9.4c-3.1,1.2-4.9,2.3-6.1,3.6c0.4-0.1,0.8-0.1,1.2-0.1
		c1.8,0,2.6,0.5,3.3,1c0.6,0.4,1,0.6,2.2,0.6c1.5,0,2.3-0.7,2.9-1.3C94.5,24.7,95.2,24.6,95.6,25L95.6,25z"/>
	<path class="st0" d="M108.6,7.7c2.8,0.2,4.6,2.7,4.6,6.1c0,3.1-1.4,7.3-2.7,9.8c-0.6,1.2-2.5,4.3-5.3,5.4c-0.5,0.2-1.1,0.3-1.7,0.3
		c-1.4,0-2.7-0.6-3.6-1.7c-0.9-1-1.4-2.6-1.5-4.2c-0.2-4.2,1.3-9.1,3.7-12.2c1.7-2.2,3.9-3.5,6.1-3.5C108.3,7.7,108.4,7.7,108.6,7.7
		L108.6,7.7z M111.1,13.7c0-1.8-0.7-3.9-2.7-4c-0.1,0-0.1,0-0.2,0c-2,0-3.6,1.7-4.4,2.7c-2.1,2.8-3.5,7.1-3.3,10.8
		c0.1,1.2,0.4,2.2,1,2.9c0.6,0.7,1.2,1,2.1,1c0.3,0,0.6-0.1,0.9-0.2c1.5-0.6,3-2.2,4.2-4.4C109.9,20.3,111.1,16.4,111.1,13.7
		L111.1,13.7z"/>
	<path class="st0" d="M115.4,27.3c0.1,0.3,0.1,0.6,0,0.8c0,0,0,0,0,0c-0.4,2.6-2.7,3.5-2.8,3.5c-0.1,0-0.3,0.1-0.4,0.1
		c-0.4,0-0.8-0.3-1-0.7c-0.2-0.5,0.1-1.1,0.6-1.3c0,0,0.7-0.3,1.1-0.9c-0.1-0.2-0.3-0.4-0.3-0.6c-0.1-0.5,0-1.1,0.3-1.5
		c0.3-0.3,0.7-0.5,1.1-0.5C114.7,26.1,115.3,26.6,115.4,27.3L115.4,27.3z"/>
	<path class="st0" d="M140.4,25c0.4,0.3,0.5,1.1,0.1,1.5c-0.6,0.7-2.1,2-4.4,2c-1.8,0-2.6-0.5-3.3-1c-0.6-0.4-1-0.6-2.2-0.6
		c-2.5,0-4.1,1.8-4.1,1.9c-0.2,0.2-0.5,0.4-0.8,0.4c0,0,0,0-0.1,0c0,0,0,0,0,0c-0.2,0-0.4-0.1-0.5-0.2c0,0,0,0,0,0c0,0,0,0-0.1,0
		c-0.2-0.2-0.3-0.4-0.3-0.7c0-0.2,0-0.5,0.1-0.7l0.4-0.5c1.9-2.9,3.5-5.2,9.6-7.5c4.2-1.6,6.3-4.9,6-7.1c-0.2-1.4-1.5-2.2-3.6-2.3
		c-1.7,0-2.9,0.4-3.8,1.3c-1.7,1.7-1.7,4.6-1.7,4.6c0,0.5-0.5,1-1,1l0-0.3V17c-0.5,0-1-0.5-1-1c0-0.1,0-3.7,2.4-6.1
		c1.3-1.3,3.2-2,5.4-1.9c3,0.1,5.2,1.6,5.6,4c0.5,3-1.9,7.3-7.3,9.4c-3.1,1.2-4.9,2.3-6.1,3.6c0.4-0.1,0.8-0.1,1.2-0.1
		c1.8,0,2.6,0.5,3.3,1c0.6,0.4,1,0.6,2.2,0.6c1.5,0,2.3-0.7,2.9-1.3C139.3,24.7,140,24.6,140.4,25L140.4,25z"/>
	<path class="st0" d="M153.3,7.7c2.8,0.2,4.6,2.7,4.6,6.1c0,3.1-1.4,7.3-2.7,9.8c-0.6,1.2-2.5,4.3-5.3,5.4c-0.5,0.2-1.1,0.3-1.7,0.3
		c-1.4,0-2.7-0.6-3.6-1.7c-0.9-1-1.4-2.6-1.5-4.2c-0.2-4.2,1.3-9.1,3.7-12.2c1.7-2.2,3.9-3.5,6.1-3.5C153.1,7.7,153.2,7.7,153.3,7.7
		L153.3,7.7z M155.9,13.7c0-1.8-0.7-3.9-2.7-4c-0.1,0-0.1,0-0.2,0c-2,0-3.6,1.7-4.4,2.7c-2.1,2.8-3.5,7.1-3.3,10.8
		c0.1,1.2,0.4,2.2,1,2.9c0.6,0.7,1.2,1,2.1,1c0.3,0,0.6-0.1,0.9-0.2c1.5-0.6,3-2.2,4.2-4.4C154.6,20.3,155.9,16.4,155.9,13.7
		L155.9,13.7z"/>
	<path class="st0" d="M165.8,8.1c0.4-0.2,1-0.2,1.3,0.1c0.3,0.3,0.4,0.9,0.2,1.3c-0.1,0.1-7.6,12.2-9.4,19c-0.1,0.4-0.6,0.8-1,0.8
		c-0.1,0-0.2,0-0.3,0c-0.5-0.1-0.9-0.8-0.7-1.3c1.2-4.7,4.9-11.5,7.3-15.7l-1.9,1.2c-0.4,0.3-1.1,0.1-1.4-0.3
		c-0.3-0.4-0.1-1.1,0.3-1.4L165.8,8.1z"/>
	<path class="st0" d="M180.1,8c0.5-0.1,1.1,0.4,1.1,0.9c0.1,0.5-0.4,1.1-0.9,1.1l-8.7,0.9l-2.6,4.8c2.5-1.4,4.4-1.4,5.5-1
		c1.9,0.7,2.8,2.4,3,3.6c0.4,2.7-1.9,6.2-4.2,8.3c-1.4,1.3-3.8,2.5-6.1,2.5c-0.5,0-1-0.1-1.5-0.2c-1.4-0.3-2.5-1.2-3.2-2.3
		c-0.6-1-0.7-2.2-0.4-3.4c0.1-0.5,0.8-0.9,1.3-0.7c0.5,0.1,0.9,0.8,0.7,1.3c-0.2,0.7-0.1,1.3,0.2,1.8c0.4,0.6,1,1.1,1.9,1.3
		c1.9,0.5,4.3-0.5,5.7-1.8c1.9-1.8,3.8-4.7,3.5-6.5c-0.1-0.8-0.6-1.7-1.6-2c-1.7-0.6-4.3,0.6-7.4,3.5c-0.3,0.3-1,0.4-1.3,0.1
		c-0.4-0.3-0.5-0.9-0.3-1.3l5.2-9.5c0.2-0.3,0.5-0.5,0.8-0.5L180.1,8z"/>
</g>
<g>
	<g>
		<g>
			<path class="st0" d="M188.7,20.3c-0.2,0-0.3-0.1-0.4-0.3c0,0-0.1-0.4-0.2-1.1c0-0.3-0.1-0.6-0.1-1c0,0,0,0,0,0
				c-0.3,0.2-0.6,0.3-0.6,0.3c-0.1,0-0.3,0-0.4-0.1c-0.1-0.1-0.1-0.3-0.1-0.4c0,0,0.1-0.2,0.3-0.5c-0.3,0-0.6,0-0.8-0.1
				c-0.6-0.1-1-0.2-1.1-0.2c-0.2,0-0.3-0.2-0.3-0.4c0-0.2,0.1-0.3,0.3-0.4c0,0,0.4-0.1,1.1-0.2c0.2,0,0.5-0.1,0.8-0.1
				c-0.2-0.2-0.3-0.4-0.3-0.5c-0.1-0.1,0-0.3,0.1-0.4c0.1-0.1,0.2-0.2,0.4-0.1c0,0,0.3,0.1,0.6,0.3c0,0,0,0,0,0c0-0.4,0.1-0.7,0.1-1
				c0.1-0.6,0.2-1,0.2-1.1c0-0.2,0.2-0.3,0.4-0.3l0,0c0.2,0,0.3,0.1,0.4,0.3c0,0,0.1,0.4,0.2,1.1c0,0.3,0.1,0.6,0.1,1c0,0,0,0,0,0
				c0.3-0.2,0.6-0.3,0.6-0.3c0.1,0,0.3,0,0.4,0.1c0.1,0.1,0.1,0.3,0.1,0.4c0,0-0.1,0.2-0.3,0.4c0.3,0,0.6,0,0.8,0.1
				c0.6,0.1,1,0.2,1.1,0.2c0.2,0,0.3,0.2,0.3,0.4c0,0.2-0.1,0.3-0.3,0.4c0,0-0.4,0.1-1.1,0.2c-0.2,0-0.5,0.1-0.8,0.1
				c0.2,0.2,0.3,0.4,0.3,0.4c0.1,0.1,0,0.3-0.1,0.4c-0.1,0.1-0.2,0.2-0.4,0.1c0,0-0.3-0.1-0.6-0.3c0,0,0,0,0,0c0,0.4-0.1,0.7-0.1,1
				c-0.1,0.6-0.2,1-0.2,1.1C189.1,20.2,188.9,20.3,188.7,20.3L188.7,20.3z M188.4,16.9c0.1,0,0.1,0,0.2,0c0.1,0,0.1,0.1,0.1,0.1
				c0,0,0.1-0.1,0.1-0.1c0.1,0,0.2,0,0.2,0c0,0,0-0.1,0-0.1c0-0.1,0.1-0.1,0.1-0.2c-0.1,0-0.1-0.1-0.1-0.2c0,0,0-0.1,0-0.1
				c-0.1,0-0.2,0-0.2,0c-0.1,0-0.1-0.1-0.1-0.1c0,0-0.1,0.1-0.1,0.1c-0.1,0-0.2,0-0.2,0c0,0,0,0.1,0,0.1c0,0.1-0.1,0.1-0.1,0.2
				c0.1,0,0.1,0.1,0.1,0.2C188.4,16.9,188.4,16.9,188.4,16.9C188.4,16.9,188.4,16.9,188.4,16.9z"/>
		</g>
	</g>
</g>
<g>
	<g>
		<g>
			<path class="st0" d="M18.3,22.7c-0.1,0-0.2-0.1-0.2-0.2c0,0-0.1-0.3-0.1-0.7c0-0.2,0-0.4-0.1-0.7c0,0,0,0,0,0
				c-0.2,0.1-0.4,0.2-0.4,0.2c-0.1,0-0.2,0-0.3-0.1c-0.1-0.1-0.1-0.2,0-0.3c0,0,0.1-0.1,0.2-0.3c-0.2,0-0.4,0-0.6-0.1
				c-0.4-0.1-0.7-0.1-0.7-0.1c-0.1,0-0.2-0.1-0.2-0.2c0-0.1,0.1-0.2,0.2-0.2c0,0,0.3-0.1,0.7-0.1c0.2,0,0.3,0,0.5-0.1
				c-0.1-0.2-0.2-0.3-0.2-0.3c0-0.1,0-0.2,0-0.3c0.1-0.1,0.2-0.1,0.3-0.1c0,0,0.2,0.1,0.4,0.2c0,0,0,0,0,0c0-0.2,0-0.5,0.1-0.7
				C17.9,18.3,18,18,18,18c0-0.1,0.1-0.2,0.2-0.2l0,0c0.1,0,0.2,0.1,0.2,0.2c0,0,0.1,0.3,0.1,0.7c0,0.2,0,0.4,0.1,0.7c0,0,0,0,0,0
				c0.2-0.1,0.4-0.2,0.4-0.2c0.1,0,0.2,0,0.3,0.1c0.1,0.1,0.1,0.2,0,0.3c0,0-0.1,0.1-0.2,0.3c0.2,0,0.4,0,0.6,0.1
				c0.4,0.1,0.7,0.1,0.7,0.1c0.1,0,0.2,0.1,0.2,0.2c0,0.1-0.1,0.2-0.2,0.2c0,0-0.3,0.1-0.7,0.1c-0.2,0-0.3,0-0.5,0.1
				c0.1,0.2,0.2,0.3,0.2,0.3c0,0.1,0,0.2,0,0.3c-0.1,0.1-0.2,0.1-0.3,0.1c0,0-0.2-0.1-0.4-0.2c0,0,0,0,0,0c0,0.2,0,0.5-0.1,0.7
				c-0.1,0.4-0.1,0.7-0.1,0.7C18.5,22.7,18.4,22.7,18.3,22.7L18.3,22.7z M18.1,20.4c0,0,0.1,0,0.1,0c0,0,0.1,0,0.1,0.1
				c0,0,0.1-0.1,0.1-0.1c0,0,0.1,0,0.2,0c0,0,0-0.1,0-0.1c0,0,0-0.1,0.1-0.1c0,0-0.1-0.1-0.1-0.1c0,0,0-0.1,0-0.1
				c-0.1,0-0.1,0-0.2,0c0,0-0.1,0-0.1-0.1c0,0-0.1,0.1-0.1,0.1c-0.1,0-0.1,0-0.2,0c0,0,0,0.1,0,0.1c0,0,0,0.1-0.1,0.1
				C17.9,20.3,18,20.3,18.1,20.4C18,20.4,18,20.4,18.1,20.4C18,20.4,18,20.4,18.1,20.4z"/>
		</g>
	</g>
</g>
<g>
	<g>
		<g>
			<path class="st0" d="M5.3,19.2c-0.2,0-0.3-0.1-0.4-0.3c0,0-0.1-0.4-0.2-1.1c0-0.3-0.1-0.6-0.1-1c0,0,0,0,0,0
				C4.3,17.1,4,17.2,4,17.2c-0.1,0-0.3,0-0.4-0.1c-0.1-0.1-0.1-0.3-0.1-0.4c0,0,0.1-0.2,0.3-0.5c-0.3,0-0.6,0-0.8-0.1
				c-0.6-0.1-1-0.2-1.1-0.2c-0.2,0-0.3-0.2-0.3-0.4s0.1-0.3,0.3-0.4c0,0,0.4-0.1,1.1-0.2C3.2,15,3.5,15,3.8,15
				c-0.2-0.2-0.3-0.4-0.3-0.5c-0.1-0.1,0-0.3,0.1-0.4C3.7,14,3.8,14,4,14c0,0,0.3,0.1,0.6,0.3c0,0,0,0,0,0c0-0.4,0.1-0.7,0.1-1
				c0.1-0.6,0.2-1,0.2-1.1C5,12.1,5.1,12,5.3,12l0,0c0.2,0,0.3,0.1,0.4,0.3c0,0,0.1,0.4,0.2,1.1c0,0.3,0.1,0.6,0.1,1c0,0,0,0,0,0
				C6.3,14.1,6.5,14,6.6,14c0.1,0,0.3,0,0.4,0.1C7,14.2,7.1,14.4,7,14.5c0,0-0.1,0.2-0.3,0.4c0.3,0,0.6,0,0.8,0.1
				c0.6,0.1,1,0.2,1.1,0.2c0.2,0,0.3,0.2,0.3,0.4c0,0.2-0.1,0.3-0.3,0.4c0,0-0.4,0.1-1.1,0.2c-0.2,0-0.5,0.1-0.8,0.1
				C6.9,16.5,7,16.7,7,16.7c0.1,0.1,0,0.3-0.1,0.4c-0.1,0.1-0.2,0.2-0.4,0.1c0,0-0.3-0.1-0.6-0.3c0,0,0,0,0,0c0,0.4-0.1,0.7-0.1,1
				c-0.1,0.6-0.2,1-0.2,1.1C5.6,19.1,5.4,19.2,5.3,19.2L5.3,19.2z M5,15.9c0.1,0,0.1,0,0.2,0c0.1,0,0.1,0.1,0.1,0.1
				c0,0,0.1-0.1,0.1-0.1c0.1,0,0.2,0,0.2,0c0,0,0-0.1,0-0.1c0-0.1,0.1-0.1,0.1-0.2c-0.1,0-0.1-0.1-0.1-0.2c0,0,0-0.1,0-0.1
				c-0.1,0-0.2,0-0.2,0c-0.1,0-0.1-0.1-0.1-0.1c0,0-0.1,0.1-0.1,0.1c-0.1,0-0.2,0-0.2,0c0,0,0,0.1,0,0.1c0,0.1-0.1,0.1-0.1,0.2
				c0.1,0,0.1,0.1,0.1,0.2C4.9,15.8,4.9,15.8,5,15.9C4.9,15.9,4.9,15.9,5,15.9z"/>
		</g>
	</g>
</g>
<g>
	<g>
		<g>
			<path class="st0" d="M17.7,8.9c-0.2,0-0.3-0.1-0.4-0.3c0,0-0.1-0.4-0.2-1.1c0-0.3-0.1-0.6-0.1-1c0,0,0,0,0,0
				c-0.3,0.2-0.6,0.3-0.6,0.3c-0.1,0-0.3,0-0.4-0.1C16,6.7,15.9,6.5,16,6.4c0,0,0.1-0.2,0.3-0.5c-0.3,0-0.6,0-0.8-0.1
				c-0.6-0.1-1-0.2-1.1-0.2c-0.2,0-0.3-0.2-0.3-0.4c0-0.2,0.1-0.3,0.3-0.4c0,0,0.4-0.1,1.1-0.2c0.2,0,0.5-0.1,0.8-0.1
				C16.1,4.4,16,4.2,16,4.2c-0.1-0.1,0-0.3,0.1-0.4c0.1-0.1,0.2-0.2,0.4-0.1c0,0,0.3,0.1,0.6,0.3c0,0,0,0,0,0c0-0.4,0.1-0.7,0.1-1
				c0.1-0.6,0.2-1,0.2-1.1c0-0.2,0.2-0.3,0.4-0.3l0,0c0.2,0,0.3,0.1,0.4,0.3c0,0,0.1,0.4,0.2,1.1c0,0.3,0.1,0.6,0.1,1c0,0,0,0,0,0
				C18.8,3.8,19,3.7,19,3.7c0.1,0,0.3,0,0.4,0.1s0.1,0.3,0.1,0.4c0,0-0.1,0.2-0.3,0.4c0.3,0,0.6,0,0.8,0.1c0.6,0.1,1,0.2,1.1,0.2
				c0.2,0,0.3,0.2,0.3,0.4c0,0.2-0.1,0.3-0.3,0.4c0,0-0.4,0.1-1.1,0.2c-0.2,0-0.5,0.1-0.8,0.1c0.2,0.2,0.3,0.4,0.3,0.4
				c0.1,0.1,0,0.3-0.1,0.4c-0.1,0.1-0.2,0.2-0.4,0.1c0,0-0.3-0.1-0.6-0.3c0,0,0,0,0,0c0,0.4-0.1,0.7-0.1,1c-0.1,0.6-0.2,1-0.2,1.1
				C18.1,8.8,17.9,8.9,17.7,8.9L17.7,8.9z M17.4,5.6c0.1,0,0.1,0,0.2,0c0.1,0,0.1,0.1,0.1,0.1c0,0,0.1-0.1,0.1-0.1
				c0.1,0,0.2,0,0.2,0c0,0,0-0.1,0-0.1c0-0.1,0.1-0.1,0.1-0.2c-0.1,0-0.1-0.1-0.1-0.2c0,0,0-0.1,0-0.1c-0.1,0-0.2,0-0.2,0
				c-0.1,0-0.1-0.1-0.1-0.1c0,0-0.1,0.1-0.1,0.1c-0.1,0-0.2,0-0.2,0c0,0,0,0.1,0,0.1c0,0.1-0.1,0.1-0.1,0.2c0.1,0,0.1,0.1,0.1,0.2
				C17.4,5.5,17.4,5.5,17.4,5.6C17.4,5.6,17.4,5.6,17.4,5.6z"/>
		</g>
	</g>
</g>
<g>
	<g>
		<g>
			<path class="st0" d="M196.5,28.2c-0.1,0-0.2-0.1-0.2-0.2c0,0-0.1-0.3-0.1-0.7c0-0.2,0-0.4-0.1-0.7c0,0,0,0,0,0
				c-0.2,0.1-0.4,0.2-0.4,0.2c-0.1,0-0.2,0-0.3-0.1c-0.1-0.1-0.1-0.2,0-0.3c0,0,0.1-0.1,0.2-0.3c-0.2,0-0.4,0-0.6-0.1
				c-0.4-0.1-0.7-0.1-0.7-0.1c-0.1,0-0.2-0.1-0.2-0.2c0-0.1,0.1-0.2,0.2-0.2c0,0,0.3-0.1,0.7-0.1c0.2,0,0.3,0,0.5-0.1
				c-0.1-0.2-0.2-0.3-0.2-0.3c0-0.1,0-0.2,0-0.3c0.1-0.1,0.2-0.1,0.3-0.1c0,0,0.2,0.1,0.4,0.2c0,0,0,0,0,0c0-0.2,0-0.5,0.1-0.7
				c0.1-0.4,0.1-0.7,0.1-0.7c0-0.1,0.1-0.2,0.2-0.2l0,0c0.1,0,0.2,0.1,0.2,0.2c0,0,0.1,0.3,0.1,0.7c0,0.2,0,0.4,0.1,0.7c0,0,0,0,0,0
				c0.2-0.1,0.4-0.2,0.4-0.2c0.1,0,0.2,0,0.3,0.1c0.1,0.1,0.1,0.2,0,0.3c0,0-0.1,0.1-0.2,0.3c0.2,0,0.4,0,0.6,0.1
				c0.4,0.1,0.7,0.1,0.7,0.1c0.1,0,0.2,0.1,0.2,0.2c0,0.1-0.1,0.2-0.2,0.2c0,0-0.3,0.1-0.7,0.1c-0.2,0-0.3,0-0.5,0.1
				c0.1,0.2,0.2,0.3,0.2,0.3c0,0.1,0,0.2,0,0.3c-0.1,0.1-0.2,0.1-0.3,0.1c0,0-0.2-0.1-0.4-0.2c0,0,0,0,0,0c0,0.2,0,0.5-0.1,0.7
				c-0.1,0.4-0.1,0.7-0.1,0.7C196.7,28.1,196.6,28.2,196.5,28.2L196.5,28.2z M196.3,25.9c0,0,0.1,0,0.1,0c0,0,0.1,0,0.1,0.1
				c0,0,0.1-0.1,0.1-0.1c0,0,0.1,0,0.2,0c0,0,0-0.1,0-0.1c0,0,0-0.1,0.1-0.1c0,0-0.1-0.1-0.1-0.1c0,0,0-0.1,0-0.1
				c-0.1,0-0.1,0-0.2,0c0,0-0.1,0-0.1-0.1c0,0-0.1,0.1-0.1,0.1c-0.1,0-0.1,0-0.2,0c0,0,0,0.1,0,0.1c0,0,0,0.1-0.1,0.1
				C196.2,25.7,196.2,25.8,196.3,25.9C196.2,25.8,196.2,25.9,196.3,25.9C196.3,25.9,196.3,25.9,196.3,25.9z"/>
		</g>
	</g>
</g>
</svg>
