<?xml version="1.0" encoding="utf-8"?>
<!-- Generator: Adobe Illustrator 20.1.0, SVG Export Plug-In . SVG Version: 6.00 Build 0)  -->
<svg version="1.1" id="Layer_1" xmlns="http://www.w3.org/2000/svg" xmlns:xlink="http://www.w3.org/1999/xlink" x="0px" y="0px"
	 viewBox="0 0 200 46.6" style="enable-background:new 0 0 200 46.6;" xml:space="preserve">
<style type="text/css">
	.st0{fill:#FFFFFF;}
	.st1{fill:none;stroke:#F6F3EA;stroke-width:0.2912;stroke-linecap:round;stroke-linejoin:round;stroke-miterlimit:10;}
</style>
<g>
	<path class="st0" d="M52.7,3.2c0.4,0.3,0.6,0.9,0.4,1.3c0,0.1-4.8,11.4-6,15.2c-1.2,3.8-2.2,8.4-2.2,8.4c-0.1,0.5-0.7,0.9-1.2,0.8
		c-0.5-0.1-0.9-0.7-0.8-1.2c0,0,1-4.7,2.3-8.6c0.6-2,2.2-5.8,3.5-9.2c-1.5,1.9-3.3,4.1-4.9,6.5c-1.5,2.1-6.7,9.7-6.7,9.8
		c-0.3,0.4-0.9,0.6-1.3,0.3c-0.4-0.2-0.7-0.8-0.5-1.3c0,0,0.8-2.3,2.3-6.2c0.8-2.2,2.6-6.7,4-10.3c-1.9,2.1-4.2,4.8-6.3,7.7
		l-0.3,0.4c-4,5.7-7.9,11.1-11,13C23.7,30,23.5,30,23.3,30c-0.3,0-0.7-0.2-0.9-0.5c-0.3-0.5-0.1-1.2,0.4-1.4
		c2.8-1.7,6.6-7.1,10.4-12.5l0.3-0.4C37.9,9,43.7,3.4,43.7,3.3C44.1,3,44.7,3,45.1,3.2c0.4,0.3,0.6,0.8,0.4,1.3
		c0,0.1-3.6,8.7-5.4,13.5c0.8-1.2,1.5-2.2,2-2.8C46.4,9,51.4,3.4,51.4,3.4C51.7,3,52.3,3,52.7,3.2L52.7,3.2z"/>
	<path class="st0" d="M59.7,22.6c0.4,0.3,0.6,1,0.3,1.5c-1.5,2.2-3.1,3.6-4.5,3.6c-0.2,0-0.5,0-0.7-0.1l-0.1,0
		c-0.1,0-0.9-0.3-1.3-1.2c-0.9,0.8-1.9,1.3-2.8,1.3c-0.4,0-0.7-0.1-1-0.2c-0.5-0.2-1.6-1.1-1-3.4c0.4-1.4,1.3-2.5,2-3.1
		c1.3-1.3,3.1-1.8,4.3-1.2c0.1,0.1,0.3,0.2,0.4,0.3c0.3-0.5,0.9-0.7,1.4-0.4c0.5,0.2,0.7,0.9,0.4,1.4c-0.4,0.8-0.9,1.6-1.2,2.2
		c-0.2,0.4-0.4,0.7-0.4,0.8c-0.3,0.6-0.4,1.1-0.3,1.4c0.1,0.1,0.1,0.2,0.2,0.2c0.5,0,1.6-0.8,2.9-2.7C58.5,22.4,59.2,22.3,59.7,22.6
		L59.7,22.6z M50.4,25.5c0.2,0.1,1.1-0.2,2.2-1.4c0.4-0.5,1-1.4,1.6-2.4c-0.2-0.1-0.8-0.7-2.2,0.7c-0.6,0.6-1.2,1.3-1.4,2.2
		C50.3,25.1,50.4,25.5,50.4,25.5L50.4,25.5z"/>
	<path class="st0" d="M71.3,22.6c0.4,0.3,0.6,1,0.3,1.4c-1.8,2.8-4,3.8-5.7,3.8c-0.3,0-0.6,0-0.9-0.1l-7.7,14.6
		c-0.2,0.3-0.6,0.6-0.9,0.6c-0.2,0-0.3,0-0.5-0.1c-0.5-0.2-0.7-0.9-0.4-1.4l7.2-13.8c-0.3,0-0.6,0-0.8-0.1c-1.1-0.3-1.8-1.2-1.8-2.4
		c0-1,0.5-2,0.6-2.3c0.4-0.7,0.7-1.3,0.9-1.6c-0.4,0.7-1.1,1.8-1.7,2.9l0,0.1c-0.3,0.5-1,0.7-1.4,0.4c-0.5-0.3-0.7-1-0.4-1.4l0-0.1
		c1.6-2.9,2.5-4.5,3.9-4.5c1.1,0,1.9,0.9,1.9,2c0,0.4-0.1,0.8-0.3,1.3c0,0-0.1,0.1-0.1,0.2c0,0-0.4,0.7-1,1.8
		c-0.3,0.6-0.4,1.1-0.4,1.4c0,0.3,0,0.3,0.3,0.3c0.1,0,0.1,0,0.2,0c1,0,2-1.7,2.4-2.3l0.1-0.1l1.7-3.2c0.2-0.5,0.9-0.7,1.4-0.5
		c0.5,0.2,0.7,0.9,0.5,1.4c0,0.1-0.8,1.7-1.7,3.3l-0.9,1.6c1.1-0.1,2.5-0.8,3.8-2.8C70.2,22.4,70.9,22.3,71.3,22.6L71.3,22.6z"/>
	<path class="st0" d="M94.2,23.3c0.4,0.3,0.5,1.1,0.1,1.5c-0.6,0.7-2.1,2.1-4.5,2.1c-1.8,0-2.7-0.5-3.3-1c-0.6-0.4-1-0.6-2.2-0.6
		c-2.5,0-4.1,1.9-4.1,1.9c-0.2,0.2-0.5,0.4-0.8,0.4c0,0,0,0-0.1,0c0,0,0,0,0,0c-0.2,0-0.4-0.1-0.5-0.2c0,0,0,0,0,0c0,0,0,0-0.1,0
		c-0.2-0.2-0.3-0.4-0.3-0.7c0-0.3,0-0.5,0.1-0.7l0.4-0.5c1.9-2.9,3.5-5.2,9.6-7.6c4.2-1.6,6.4-5,6-7.1c-0.2-1.4-1.5-2.2-3.6-2.3
		c-1.7,0-2.9,0.4-3.9,1.3c-1.8,1.7-1.7,4.6-1.7,4.6c0,0.5-0.5,1-1,1.1l0-0.3v0.3c-0.5,0-1-0.5-1-1c0-0.1,0-3.8,2.4-6.1
		c1.3-1.3,3.2-2,5.4-1.9c3,0.1,5.2,1.6,5.6,4c0.5,3-1.9,7.4-7.3,9.4c-3.1,1.2-4.9,2.3-6.2,3.6c0.4-0.1,0.8-0.1,1.2-0.1
		c1.8,0,2.6,0.5,3.3,1c0.6,0.4,1,0.6,2.2,0.6c1.5,0,2.3-0.7,2.9-1.3C93.1,23,93.8,23,94.2,23.3L94.2,23.3z"/>
	<path class="st0" d="M107.2,5.9c2.8,0.2,4.7,2.7,4.7,6.1c0,3.1-1.4,7.3-2.7,9.9c-0.7,1.2-2.5,4.3-5.3,5.4c-0.5,0.2-1.1,0.3-1.7,0.3
		c-1.4,0-2.7-0.7-3.7-1.7c-0.9-1-1.4-2.6-1.5-4.2c-0.2-4.2,1.3-9.1,3.8-12.2c1.7-2.2,3.9-3.5,6.1-3.5C107,5.9,107.1,5.9,107.2,5.9
		L107.2,5.9z M109.8,12c0-1.8-0.7-3.9-2.7-4c-0.1,0-0.1,0-0.2,0c-2,0-3.6,1.7-4.4,2.7c-2.1,2.8-3.5,7.1-3.3,10.9
		c0.1,1.2,0.4,2.3,1,3c0.6,0.7,1.3,1,2.1,1c0.3,0,0.6-0.1,0.9-0.2c1.5-0.6,3.1-2.2,4.2-4.4C108.5,18.6,109.8,14.7,109.8,12L109.8,12
		z"/>
	<path class="st0" d="M114.1,25.6c0.1,0.3,0.1,0.6,0,0.8c0,0,0,0,0,0c-0.4,2.6-2.7,3.5-2.8,3.5c-0.1,0-0.3,0.1-0.4,0.1
		c-0.4,0-0.8-0.3-1-0.7c-0.2-0.5,0.1-1.2,0.6-1.3c0,0,0.7-0.3,1.1-0.9c-0.1-0.2-0.3-0.4-0.3-0.6c-0.1-0.5,0-1.1,0.3-1.5
		c0.3-0.3,0.7-0.5,1.1-0.5C113.4,24.5,114,25,114.1,25.6L114.1,25.6z"/>
	<path class="st0" d="M139.2,23.3c0.4,0.3,0.5,1.1,0.1,1.5c-0.6,0.7-2.1,2.1-4.5,2.1c-1.8,0-2.7-0.5-3.3-1c-0.6-0.4-1-0.6-2.2-0.6
		c-2.5,0-4.1,1.9-4.1,1.9c-0.2,0.2-0.5,0.4-0.8,0.4c0,0,0,0-0.1,0c0,0,0,0,0,0c-0.2,0-0.4-0.1-0.5-0.2c0,0,0,0,0,0c0,0,0,0-0.1,0
		c-0.2-0.2-0.3-0.4-0.3-0.7c0-0.3,0-0.5,0.1-0.7l0.4-0.5c1.9-2.9,3.5-5.2,9.6-7.6c4.2-1.6,6.4-5,6-7.1c-0.2-1.4-1.5-2.2-3.6-2.3
		c-1.7,0-2.9,0.4-3.9,1.3c-1.8,1.7-1.7,4.6-1.7,4.6c0,0.5-0.5,1-1,1.1l0-0.3v0.3c-0.5,0-1-0.5-1-1c0-0.1,0-3.8,2.4-6.1
		c1.3-1.3,3.2-2,5.4-1.9c3,0.1,5.2,1.6,5.6,4c0.5,3-1.9,7.4-7.3,9.4c-3.1,1.2-4.9,2.3-6.2,3.6c0.4-0.1,0.8-0.1,1.2-0.1
		c1.8,0,2.6,0.5,3.3,1c0.6,0.4,1,0.6,2.2,0.6c1.5,0,2.3-0.7,2.9-1.3C138.1,23,138.8,23,139.2,23.3L139.2,23.3z"/>
	<path class="st0" d="M152.2,5.9c2.8,0.2,4.7,2.7,4.7,6.1c0,3.1-1.4,7.3-2.7,9.9c-0.7,1.2-2.5,4.3-5.3,5.4c-0.5,0.2-1.1,0.3-1.7,0.3
		c-1.4,0-2.7-0.7-3.7-1.7c-0.9-1-1.4-2.6-1.5-4.2c-0.2-4.2,1.3-9.1,3.8-12.2c1.7-2.2,3.9-3.5,6.1-3.5C152,5.9,152.1,5.9,152.2,5.9
		L152.2,5.9z M154.8,12c0-1.8-0.7-3.9-2.7-4c-0.1,0-0.1,0-0.2,0c-2,0-3.6,1.7-4.4,2.7c-2.1,2.8-3.5,7.1-3.3,10.9
		c0.1,1.2,0.4,2.3,1,3c0.6,0.7,1.3,1,2.1,1c0.3,0,0.6-0.1,0.9-0.2c1.5-0.6,3.1-2.2,4.2-4.4C153.5,18.6,154.8,14.7,154.8,12L154.8,12
		z"/>
	<path class="st0" d="M164.8,6.4c0.4-0.3,1-0.2,1.3,0.1c0.3,0.3,0.4,0.9,0.2,1.3c-0.1,0.1-7.6,12.2-9.5,19.1c-0.1,0.4-0.6,0.8-1,0.8
		c-0.1,0-0.2,0-0.3,0c-0.5-0.1-0.9-0.8-0.7-1.3c1.3-4.7,4.9-11.5,7.4-15.8l-1.9,1.2c-0.4,0.3-1.2,0.1-1.4-0.3
		c-0.3-0.4-0.1-1.2,0.3-1.4L164.8,6.4z"/>
	<path class="st0" d="M179.1,6.3c0.5-0.1,1.1,0.4,1.1,0.9c0.1,0.5-0.4,1.1-0.9,1.1l-8.7,0.9l-2.7,4.9c2.5-1.4,4.4-1.4,5.6-1
		c1.9,0.7,2.8,2.4,3,3.7c0.4,2.7-1.9,6.3-4.2,8.4c-1.4,1.3-3.8,2.5-6.1,2.5c-0.5,0-1-0.1-1.5-0.2c-1.4-0.3-2.6-1.2-3.2-2.3
		c-0.6-1-0.7-2.3-0.4-3.5c0.1-0.5,0.8-0.9,1.3-0.7c0.5,0.1,0.9,0.8,0.7,1.3c-0.2,0.7-0.1,1.3,0.2,1.8c0.4,0.6,1.1,1.1,1.9,1.4
		c1.9,0.5,4.4-0.5,5.7-1.8c2-1.8,3.8-4.7,3.5-6.5c-0.1-0.8-0.6-1.7-1.6-2c-1.7-0.6-4.3,0.6-7.4,3.5c-0.3,0.3-1,0.4-1.4,0.1
		c-0.4-0.3-0.5-0.9-0.3-1.3l5.3-9.6c0.2-0.3,0.5-0.5,0.8-0.5L179.1,6.3z"/>
</g>
<g>
	<g>
		<path class="st0" d="M187.9,18.5c-0.2,0-0.3-0.1-0.4-0.3c0,0-0.1-0.4-0.2-1.1c0-0.3-0.1-0.6-0.1-1c0,0,0,0,0,0
			c-0.3,0.2-0.6,0.3-0.6,0.3c-0.1,0-0.3,0-0.4-0.1c-0.1-0.1-0.1-0.3-0.1-0.4c0,0,0.1-0.2,0.3-0.5c-0.3,0-0.6,0-0.8-0.1
			c-0.6-0.1-1-0.2-1.1-0.2c-0.2,0-0.3-0.2-0.3-0.4c0-0.2,0.1-0.3,0.3-0.4c0,0,0.4-0.1,1.1-0.2c0.2,0,0.5-0.1,0.8-0.1
			c-0.2-0.3-0.3-0.4-0.3-0.5c-0.1-0.1,0-0.3,0.1-0.4c0.1-0.1,0.2-0.2,0.4-0.1c0,0,0.3,0.1,0.6,0.3c0,0,0,0,0,0c0-0.4,0.1-0.7,0.1-1
			c0.1-0.6,0.2-1,0.2-1.1c0-0.2,0.2-0.3,0.4-0.3l0,0c0.2,0,0.3,0.1,0.4,0.3c0,0,0.1,0.4,0.2,1.1c0,0.3,0.1,0.6,0.1,1c0,0,0,0,0,0
			c0.3-0.2,0.6-0.3,0.6-0.3c0.1,0,0.3,0,0.4,0.1c0.1,0.1,0.1,0.3,0.1,0.4c0,0-0.1,0.2-0.3,0.5c0.3,0,0.6,0,0.8,0.1
			c0.6,0.1,1,0.2,1.1,0.2c0.2,0,0.3,0.2,0.3,0.4c0,0.2-0.1,0.3-0.3,0.4c0,0-0.4,0.1-1.1,0.2c-0.2,0-0.5,0.1-0.8,0.1
			c0.2,0.2,0.3,0.4,0.3,0.5c0.1,0.1,0,0.3-0.1,0.4c-0.1,0.1-0.2,0.2-0.4,0.1c0,0-0.3-0.1-0.6-0.3c0,0,0,0,0,0c0,0.4-0.1,0.7-0.1,1
			c-0.1,0.6-0.2,1-0.2,1.1C188.2,18.4,188.1,18.5,187.9,18.5L187.9,18.5z M187.6,15.1c0.1,0,0.1,0,0.2,0c0.1,0,0.1,0.1,0.1,0.1
			c0,0,0.1-0.1,0.1-0.1c0.1,0,0.2,0,0.2,0c0,0,0-0.1,0-0.1c0-0.1,0.1-0.1,0.1-0.2c-0.1,0-0.1-0.1-0.1-0.2c0,0,0-0.1,0-0.1
			c-0.1,0-0.2,0-0.2,0c-0.1,0-0.1-0.1-0.1-0.1c0,0-0.1,0.1-0.1,0.1c-0.1,0-0.2,0-0.2,0c0,0,0,0.1,0,0.1c0,0.1-0.1,0.1-0.1,0.2
			c0.1,0,0.1,0.1,0.1,0.2C187.5,15.1,187.5,15.1,187.6,15.1C187.6,15.1,187.6,15.1,187.6,15.1z"/>
	</g>
</g>
<ellipse class="st0" cx="188" cy="15" rx="0.8" ry="0.7"/>
<g>
	<g>
		<g>
			<path class="st0" d="M5.6,20.3c-0.2,0-0.3-0.1-0.4-0.3c0,0-0.1-0.4-0.2-1.1c0-0.3-0.1-0.6-0.1-1c0,0,0,0,0,0
				c-0.3,0.2-0.6,0.3-0.6,0.3c-0.1,0-0.3,0-0.4-0.1c-0.1-0.1-0.1-0.3-0.1-0.4c0,0,0.1-0.2,0.3-0.5c-0.3,0-0.6,0-0.8-0.1
				c-0.6-0.1-1-0.2-1.1-0.2C2.1,17,2,16.8,2,16.7s0.1-0.3,0.3-0.4c0,0,0.4-0.1,1.1-0.2c0.2,0,0.5-0.1,0.8-0.1
				c-0.2-0.3-0.3-0.4-0.3-0.5c-0.1-0.1,0-0.3,0.1-0.4C4,15.1,4.2,15,4.3,15.1c0,0,0.3,0.1,0.6,0.3c0,0,0,0,0,0c0-0.4,0.1-0.7,0.1-1
				c0.1-0.6,0.2-1,0.2-1.1c0-0.2,0.2-0.3,0.4-0.3l0,0c0.2,0,0.3,0.1,0.4,0.3c0,0,0.1,0.4,0.2,1.1c0,0.3,0.1,0.6,0.1,1c0,0,0,0,0,0
				c0.3-0.2,0.6-0.3,0.6-0.3c0.1,0,0.3,0,0.4,0.1c0.1,0.1,0.1,0.3,0.1,0.4c0,0-0.1,0.2-0.3,0.5c0.3,0,0.6,0,0.8,0.1
				c0.6,0.1,1,0.2,1.1,0.2c0.2,0,0.3,0.2,0.3,0.4C9.2,16.8,9.1,17,9,17c0,0-0.4,0.1-1.1,0.2c-0.2,0-0.5,0.1-0.8,0.1
				c0.2,0.2,0.3,0.4,0.3,0.5c0.1,0.1,0,0.3-0.1,0.4c-0.1,0.1-0.2,0.2-0.4,0.1c0,0-0.3-0.1-0.6-0.3c0,0,0,0,0,0c0,0.4-0.1,0.7-0.1,1
				C6.1,19.6,6,20,6,20C5.9,20.2,5.8,20.3,5.6,20.3L5.6,20.3z M5.3,16.9c0.1,0,0.1,0,0.2,0c0.1,0,0.1,0.1,0.1,0.1
				c0,0,0.1-0.1,0.1-0.1c0.1,0,0.2,0,0.2,0c0,0,0-0.1,0-0.1c0-0.1,0.1-0.1,0.1-0.2c-0.1,0-0.1-0.1-0.1-0.2c0,0,0-0.1,0-0.1
				c-0.1,0-0.2,0-0.2,0c-0.1,0-0.1-0.1-0.1-0.1c0,0-0.1,0.1-0.1,0.1c-0.1,0-0.2,0-0.2,0c0,0,0,0.1,0,0.1c0,0.1-0.1,0.1-0.1,0.2
				c0.1,0,0.1,0.1,0.1,0.2C5.2,16.8,5.2,16.9,5.3,16.9C5.3,16.9,5.3,16.9,5.3,16.9z"/>
		</g>
	</g>
	<g>
		<ellipse class="st0" cx="5.7" cy="16.7" rx="0.8" ry="0.7"/>
	</g>
</g>
<g>
	<g>
		<g>
			<path class="st0" d="M19.1,12.1c-0.1,0-0.2-0.1-0.2-0.2c0,0-0.1-0.3-0.1-0.7c0-0.2,0-0.4-0.1-0.7c0,0,0,0,0,0
				c-0.2,0.1-0.4,0.2-0.4,0.2c-0.1,0-0.2,0-0.3-0.1c-0.1-0.1-0.1-0.2,0-0.3c0,0,0.1-0.1,0.2-0.3c-0.2,0-0.4,0-0.6-0.1
				c-0.4-0.1-0.7-0.1-0.7-0.1c-0.1,0-0.2-0.1-0.2-0.2s0.1-0.2,0.2-0.2c0,0,0.3-0.1,0.7-0.1c0.2,0,0.4,0,0.6-0.1
				c-0.1-0.2-0.2-0.3-0.2-0.3c0-0.1,0-0.2,0-0.3c0.1-0.1,0.2-0.1,0.3-0.1c0,0,0.2,0.1,0.4,0.2c0,0,0,0,0,0c0-0.2,0-0.5,0.1-0.7
				c0.1-0.4,0.1-0.7,0.1-0.7c0-0.1,0.1-0.2,0.2-0.2l0,0c0.1,0,0.2,0.1,0.2,0.2c0,0,0.1,0.3,0.1,0.7c0,0.2,0,0.4,0.1,0.7c0,0,0,0,0,0
				C19.8,8.7,20,8.6,20,8.6c0.1,0,0.2,0,0.3,0.1s0.1,0.2,0,0.3c0,0-0.1,0.1-0.2,0.3c0.2,0,0.4,0,0.6,0.1c0.4,0.1,0.7,0.1,0.7,0.1
				c0.1,0,0.2,0.1,0.2,0.2c0,0.1-0.1,0.2-0.2,0.2c0,0-0.3,0.1-0.7,0.1c-0.2,0-0.3,0-0.6,0.1c0.1,0.2,0.2,0.3,0.2,0.3
				c0,0.1,0,0.2,0,0.3c-0.1,0.1-0.2,0.1-0.3,0.1c0,0-0.2-0.1-0.4-0.2c0,0,0,0,0,0c0,0.2,0,0.5-0.1,0.7c-0.1,0.4-0.1,0.7-0.1,0.7
				C19.3,12.1,19.2,12.1,19.1,12.1L19.1,12.1z M18.9,9.9c0,0,0.1,0,0.1,0c0,0,0.1,0,0.1,0.1c0,0,0.1-0.1,0.1-0.1c0.1,0,0.1,0,0.2,0
				c0,0,0-0.1,0-0.1c0,0,0-0.1,0.1-0.1c0,0-0.1-0.1-0.1-0.1c0,0,0-0.1,0-0.1c-0.1,0-0.1,0-0.2,0c0,0-0.1,0-0.1-0.1
				c0,0-0.1,0.1-0.1,0.1c-0.1,0-0.1,0-0.2,0c0,0,0,0.1,0,0.1c0,0,0,0.1-0.1,0.1C18.8,9.7,18.8,9.7,18.9,9.9
				C18.8,9.8,18.8,9.8,18.9,9.9C18.9,9.9,18.9,9.9,18.9,9.9z"/>
		</g>
	</g>
	<g>
		<ellipse class="st0" cx="19.1" cy="9.7" rx="0.5" ry="0.5"/>
	</g>
</g>
<g>
	<g>
		<path class="st1" d="M2.2,10.6c0.1-0.1,0.1-0.1,0.1-0.2c0.1-0.1,0.1-0.2,0.1-0.2s-0.1,0-0.2,0.1c-0.1,0-0.1,0.1-0.2,0.1"/>
		<path class="st1" d="M2.1,10.9C2.2,11,2.2,11,2.3,11.1c0.1,0.1,0.2,0.1,0.2,0.1s0-0.1-0.1-0.2c0-0.1-0.1-0.1-0.1-0.2"/>
		<path class="st1" d="M1.7,10.8c-0.1,0.1-0.1,0.1-0.1,0.2c-0.1,0.1-0.1,0.2-0.1,0.2s0.1,0,0.2-0.1c0.1,0,0.1-0.1,0.2-0.1"/>
		<path class="st1" d="M1.8,10.4c-0.1-0.1-0.1-0.1-0.2-0.1c-0.1-0.1-0.2-0.1-0.2-0.1s0,0.1,0.1,0.2c0,0.1,0.1,0.1,0.1,0.2"/>
	</g>
	<ellipse class="st0" cx="2" cy="10.7" rx="0.3" ry="0.3"/>
</g>
<g>
	<g>
		<path class="st1" d="M16.8,20.2c0.1-0.1,0.1-0.1,0.1-0.2c0.1-0.1,0.1-0.2,0.1-0.2s-0.1,0-0.2,0.1c-0.1,0-0.1,0.1-0.2,0.1"/>
		<path class="st1" d="M16.6,20.5c0.1,0.1,0.1,0.1,0.2,0.1c0.1,0.1,0.2,0.1,0.2,0.1s0-0.1-0.1-0.2c0-0.1-0.1-0.1-0.1-0.2"/>
		<path class="st1" d="M16.2,20.4c-0.1,0.1-0.1,0.1-0.1,0.2c-0.1,0.1-0.1,0.2-0.1,0.2s0.1,0,0.2-0.1c0.1,0,0.1-0.1,0.2-0.1"/>
		<path class="st1" d="M16.4,20c-0.1-0.1-0.1-0.1-0.2-0.1c-0.1-0.1-0.2-0.1-0.2-0.1s0,0.1,0.1,0.2c0,0.1,0.1,0.1,0.1,0.2"/>
	</g>
	<ellipse class="st0" cx="16.5" cy="20.3" rx="0.3" ry="0.3"/>
</g>
<g>
	<g>
		<path class="st1" d="M194.9,24c0.1-0.1,0.1-0.1,0.1-0.2c0.1-0.1,0.1-0.2,0.1-0.2s-0.1,0-0.2,0.1c-0.1,0-0.1,0.1-0.2,0.1"/>
		<path class="st1" d="M194.7,24.4c0.1,0.1,0.1,0.1,0.2,0.1c0.1,0.1,0.2,0.1,0.2,0.1s0-0.1-0.1-0.2c0-0.1-0.1-0.1-0.1-0.2"/>
		<path class="st1" d="M194.3,24.3c-0.1,0.1-0.1,0.1-0.1,0.2c-0.1,0.1-0.1,0.2-0.1,0.2s0.1,0,0.2-0.1c0.1,0,0.1-0.1,0.2-0.1"/>
		<path class="st1" d="M194.5,23.9c-0.1-0.1-0.1-0.1-0.2-0.1c-0.1-0.1-0.2-0.1-0.2-0.1s0,0.1,0.1,0.2c0,0.1,0.1,0.1,0.1,0.2"/>
	</g>
	<ellipse class="st0" cx="194.6" cy="24.2" rx="0.3" ry="0.3"/>
</g>
<g>
	<g>
		<path class="st1" d="M198.5,10.1c0.1-0.1,0.1-0.1,0.1-0.2c0.1-0.1,0.1-0.2,0.1-0.2s-0.1,0-0.2,0.1c-0.1,0-0.1,0.1-0.2,0.1"/>
		<path class="st1" d="M198.3,10.5c0.1,0.1,0.1,0.1,0.2,0.1c0.1,0.1,0.2,0.1,0.2,0.1s0-0.1-0.1-0.2c0-0.1-0.1-0.1-0.1-0.2"/>
		<path class="st1" d="M197.9,10.3c-0.1,0.1-0.1,0.1-0.1,0.2c-0.1,0.1-0.1,0.2-0.1,0.2s0.1,0,0.2-0.1c0.1,0,0.1-0.1,0.2-0.1"/>
		<path class="st1" d="M198.1,10c-0.1-0.1-0.1-0.1-0.2-0.1c-0.1-0.1-0.2-0.1-0.2-0.1s0,0.1,0.1,0.2c0,0.1,0.1,0.1,0.1,0.2"/>
	</g>
	<ellipse class="st0" cx="198.2" cy="10.2" rx="0.3" ry="0.3"/>
</g>
</svg>
