<?xml version="1.0" encoding="utf-8"?>
<!-- Generator: Adobe Illustrator 20.1.0, SVG Export Plug-In . SVG Version: 6.00 Build 0)  -->
<svg version="1.1" id="Layer_1" xmlns="http://www.w3.org/2000/svg" xmlns:xlink="http://www.w3.org/1999/xlink" x="0px" y="0px"
	 viewBox="0 0 200 46.6" style="enable-background:new 0 0 200 46.6;" xml:space="preserve">
<style type="text/css">
	.st0{fill:#FFFFFF;}
	.st1{fill:none;stroke:#F6F3EA;stroke-width:0.2912;stroke-linecap:round;stroke-linejoin:round;stroke-miterlimit:10;}
</style>
<g>
	<path class="st0" d="M54.4,5.5c0.4,0.3,0.6,0.8,0.4,1.3c0,0.1-4.8,11.3-6,15.1c-1.2,3.8-2.2,8.3-2.2,8.4c-0.1,0.5-0.7,0.9-1.2,0.8
		c-0.5-0.1-0.9-0.7-0.8-1.2c0,0,1-4.6,2.2-8.6c0.6-2,2.2-5.8,3.5-9.1c-1.5,1.9-3.3,4.1-4.9,6.4c-1.5,2.1-6.6,9.7-6.7,9.7
		c-0.3,0.4-0.9,0.6-1.3,0.3c-0.4-0.2-0.7-0.8-0.5-1.3c0,0,0.8-2.3,2.2-6.1c0.8-2.2,2.6-6.7,4-10.2c-1.9,2.1-4.2,4.8-6.2,7.6
		l-0.3,0.4c-4,5.7-7.9,11.1-11,13c-0.2,0.1-0.4,0.1-0.5,0.1c-0.3,0-0.7-0.2-0.9-0.5c-0.3-0.5-0.1-1.1,0.4-1.4
		c2.7-1.7,6.6-7.1,10.4-12.4l0.3-0.4c4.4-6.1,10.2-11.8,10.2-11.8c0.3-0.3,0.9-0.4,1.3-0.1c0.4,0.3,0.6,0.8,0.4,1.3
		c0,0.1-3.5,8.6-5.4,13.4c0.8-1.2,1.5-2.2,2-2.8C48,11.2,53,5.7,53.1,5.7C53.4,5.3,54,5.3,54.4,5.5L54.4,5.5z"/>
	<path class="st0" d="M61.3,24.8c0.4,0.3,0.6,1,0.3,1.4c-1.5,2.2-3,3.5-4.5,3.5c-0.2,0-0.5,0-0.7-0.1l-0.1,0c-0.1,0-0.9-0.3-1.3-1.2
		c-0.9,0.8-1.9,1.3-2.8,1.3c-0.4,0-0.7-0.1-1-0.2c-0.5-0.2-1.6-1.1-1-3.4c0.4-1.4,1.3-2.4,2-3.1c1.3-1.3,3.1-1.8,4.3-1.2
		c0.1,0.1,0.3,0.2,0.4,0.3c0.3-0.5,0.9-0.7,1.4-0.4c0.5,0.2,0.7,0.9,0.4,1.4c-0.4,0.8-0.9,1.6-1.2,2.2c-0.2,0.4-0.3,0.7-0.4,0.8
		c-0.3,0.6-0.4,1.1-0.3,1.4c0,0.1,0.1,0.2,0.2,0.2c0.5,0,1.6-0.8,2.9-2.6C60.1,24.6,60.8,24.5,61.3,24.8L61.3,24.8z M52.1,27.7
		c0.2,0.1,1.1-0.2,2.1-1.4c0.4-0.5,1-1.4,1.6-2.4c-0.2-0.1-0.8-0.7-2.2,0.7c-0.6,0.6-1.2,1.3-1.4,2.2C52,27.3,52.1,27.7,52.1,27.7
		L52.1,27.7z"/>
	<path class="st0" d="M72.9,24.8c0.4,0.3,0.6,1,0.3,1.4c-1.8,2.8-4,3.8-5.7,3.8c-0.3,0-0.6,0-0.8-0.1L59,44.4
		c-0.2,0.3-0.6,0.6-0.9,0.6c-0.2,0-0.3,0-0.5-0.1c-0.5-0.2-0.7-0.9-0.4-1.4l7.2-13.7c-0.3,0-0.6,0-0.8-0.1c-1.1-0.3-1.8-1.2-1.8-2.4
		c0-1,0.5-2,0.6-2.3c0.4-0.7,0.7-1.3,0.9-1.6c-0.4,0.7-1.1,1.8-1.7,2.8l0,0.1c-0.3,0.5-1,0.7-1.4,0.4c-0.5-0.3-0.7-1-0.4-1.4l0-0.1
		c1.6-2.9,2.5-4.5,3.9-4.5c1.1,0,1.9,0.9,1.9,2c0,0.4-0.1,0.8-0.3,1.3c0,0-0.1,0.1-0.1,0.2c0,0-0.4,0.7-0.9,1.7
		c-0.3,0.6-0.4,1.1-0.4,1.4c0,0.3,0,0.3,0.3,0.3c0.1,0,0.1,0,0.2,0c1,0,2-1.7,2.4-2.3l0.1-0.1l1.7-3.1c0.2-0.5,0.9-0.7,1.4-0.4
		c0.5,0.2,0.7,0.9,0.5,1.4c0,0.1-0.8,1.7-1.7,3.3l-0.8,1.6c1.1-0.1,2.5-0.8,3.7-2.8C71.7,24.6,72.4,24.5,72.9,24.8L72.9,24.8z"/>
	<path class="st0" d="M95.6,25.5c0.4,0.3,0.5,1.1,0.1,1.5c-0.6,0.7-2.1,2-4.4,2c-1.8,0-2.6-0.5-3.3-1c-0.6-0.4-1-0.6-2.2-0.6
		c-2.5,0-4.1,1.8-4.1,1.9c-0.2,0.2-0.5,0.4-0.8,0.4c0,0,0,0-0.1,0c0,0,0,0,0,0c-0.2,0-0.4-0.1-0.5-0.2c0,0,0,0,0,0c0,0,0,0-0.1,0
		c-0.2-0.2-0.3-0.4-0.3-0.7c0-0.2,0-0.5,0.1-0.7l0.4-0.5c1.9-2.9,3.5-5.2,9.6-7.5c4.2-1.6,6.3-4.9,6-7.1c-0.2-1.4-1.5-2.2-3.6-2.3
		c-1.7,0-2.9,0.4-3.8,1.3c-1.7,1.7-1.7,4.6-1.7,4.6c0,0.5-0.5,1-1,1l0-0.3v0.3c-0.5,0-1-0.5-1-1c0-0.1,0-3.7,2.4-6.1
		c1.3-1.3,3.2-2,5.4-1.9c3,0.1,5.2,1.6,5.6,4c0.5,3-1.9,7.3-7.3,9.4c-3.1,1.2-4.9,2.3-6.1,3.6c0.4-0.1,0.8-0.1,1.2-0.1
		c1.8,0,2.6,0.5,3.3,1c0.6,0.4,1,0.6,2.2,0.6c1.5,0,2.3-0.7,2.9-1.3C94.5,25.2,95.2,25.2,95.6,25.5L95.6,25.5z"/>
	<path class="st0" d="M108.6,8.2c2.8,0.2,4.6,2.7,4.6,6.1c0,3.1-1.4,7.3-2.7,9.8c-0.6,1.2-2.5,4.3-5.3,5.4c-0.5,0.2-1.1,0.3-1.7,0.3
		c-1.4,0-2.7-0.6-3.6-1.7c-0.9-1-1.4-2.6-1.5-4.2c-0.2-4.2,1.3-9.1,3.7-12.2c1.7-2.2,3.9-3.5,6.1-3.5C108.3,8.2,108.4,8.2,108.6,8.2
		L108.6,8.2z M111.1,14.3c0-1.8-0.7-3.9-2.7-4c-0.1,0-0.1,0-0.2,0c-2,0-3.6,1.7-4.4,2.7c-2.1,2.8-3.5,7.1-3.3,10.8
		c0.1,1.2,0.4,2.2,1,2.9c0.6,0.7,1.2,1,2.1,1c0.3,0,0.6-0.1,0.9-0.2c1.5-0.6,3-2.2,4.2-4.4C109.9,20.8,111.1,17,111.1,14.3
		L111.1,14.3z"/>
	<path class="st0" d="M115.4,27.8c0.1,0.3,0.1,0.6,0,0.8c0,0,0,0,0,0c-0.4,2.6-2.7,3.5-2.8,3.5c-0.1,0-0.3,0.1-0.4,0.1
		c-0.4,0-0.8-0.3-1-0.7c-0.2-0.5,0.1-1.1,0.6-1.3c0,0,0.7-0.3,1.1-0.9c-0.1-0.2-0.3-0.4-0.3-0.6c-0.1-0.5,0-1.1,0.3-1.5
		c0.3-0.3,0.7-0.5,1.1-0.5C114.7,26.7,115.3,27.2,115.4,27.8L115.4,27.8z"/>
	<path class="st0" d="M140.4,25.5c0.4,0.3,0.5,1.1,0.1,1.5c-0.6,0.7-2.1,2-4.4,2c-1.8,0-2.6-0.5-3.3-1c-0.6-0.4-1-0.6-2.2-0.6
		c-2.5,0-4.1,1.8-4.1,1.9c-0.2,0.2-0.5,0.4-0.8,0.4c0,0,0,0-0.1,0c0,0,0,0,0,0c-0.2,0-0.4-0.1-0.5-0.2c0,0,0,0,0,0c0,0,0,0-0.1,0
		c-0.2-0.2-0.3-0.4-0.3-0.7c0-0.2,0-0.5,0.1-0.7l0.4-0.5c1.9-2.9,3.5-5.2,9.6-7.5c4.2-1.6,6.3-4.9,6-7.1c-0.2-1.4-1.5-2.2-3.6-2.3
		c-1.7,0-2.9,0.4-3.8,1.3c-1.7,1.7-1.7,4.6-1.7,4.6c0,0.5-0.5,1-1,1l0-0.3v0.3c-0.5,0-1-0.5-1-1c0-0.1,0-3.7,2.4-6.1
		c1.3-1.3,3.2-2,5.4-1.9c3,0.1,5.2,1.6,5.6,4c0.5,3-1.9,7.3-7.3,9.4c-3.1,1.2-4.9,2.3-6.1,3.6c0.4-0.1,0.8-0.1,1.2-0.1
		c1.8,0,2.6,0.5,3.3,1c0.6,0.4,1,0.6,2.2,0.6c1.5,0,2.3-0.7,2.9-1.3C139.3,25.2,140,25.2,140.4,25.5L140.4,25.5z"/>
	<path class="st0" d="M153.3,8.2c2.8,0.2,4.6,2.7,4.6,6.1c0,3.1-1.4,7.3-2.7,9.8c-0.6,1.2-2.5,4.3-5.3,5.4c-0.5,0.2-1.1,0.3-1.7,0.3
		c-1.4,0-2.7-0.6-3.6-1.7c-0.9-1-1.4-2.6-1.5-4.2c-0.2-4.2,1.3-9.1,3.7-12.2c1.7-2.2,3.9-3.5,6.1-3.5C153.1,8.2,153.2,8.2,153.3,8.2
		L153.3,8.2z M155.9,14.3c0-1.8-0.7-3.9-2.7-4c-0.1,0-0.1,0-0.2,0c-2,0-3.6,1.7-4.4,2.7c-2.1,2.8-3.5,7.1-3.3,10.8
		c0.1,1.2,0.4,2.2,1,2.9c0.6,0.7,1.2,1,2.1,1c0.3,0,0.6-0.1,0.9-0.2c1.5-0.6,3-2.2,4.2-4.4C154.6,20.8,155.9,17,155.9,14.3
		L155.9,14.3z"/>
	<path class="st0" d="M165.8,8.7c0.4-0.2,1-0.2,1.3,0.1c0.3,0.3,0.4,0.9,0.2,1.3c-0.1,0.1-7.6,12.2-9.4,19c-0.1,0.4-0.6,0.8-1,0.8
		c-0.1,0-0.2,0-0.3,0c-0.5-0.1-0.9-0.8-0.7-1.3c1.2-4.7,4.9-11.5,7.3-15.7l-1.9,1.2c-0.4,0.3-1.1,0.1-1.4-0.3
		c-0.3-0.4-0.1-1.1,0.3-1.4L165.8,8.7z"/>
	<path class="st0" d="M180.1,8.5c0.5-0.1,1.1,0.4,1.1,0.9c0.1,0.5-0.4,1.1-0.9,1.1l-8.7,0.9l-2.6,4.8c2.5-1.4,4.4-1.4,5.5-1
		c1.9,0.7,2.8,2.4,3,3.6c0.4,2.7-1.9,6.2-4.2,8.3c-1.4,1.3-3.8,2.5-6.1,2.5c-0.5,0-1-0.1-1.5-0.2c-1.4-0.3-2.5-1.2-3.2-2.3
		c-0.6-1-0.7-2.2-0.4-3.4c0.1-0.5,0.8-0.9,1.3-0.7c0.5,0.1,0.9,0.8,0.7,1.3c-0.2,0.7-0.1,1.3,0.2,1.8c0.4,0.6,1,1.1,1.9,1.3
		c1.9,0.5,4.3-0.5,5.7-1.8c1.9-1.8,3.8-4.7,3.5-6.5c-0.1-0.8-0.6-1.7-1.6-2c-1.7-0.6-4.3,0.6-7.4,3.5c-0.3,0.3-1,0.4-1.3,0.1
		c-0.4-0.3-0.5-0.9-0.3-1.3l5.2-9.5c0.2-0.3,0.5-0.5,0.8-0.5L180.1,8.5z"/>
</g>
<g>
	<g>
		<g>
			<path class="st0" d="M188.7,20.8c-0.2,0-0.3-0.1-0.4-0.3c0,0-0.1-0.4-0.2-1.1c0-0.3-0.1-0.6-0.1-1c0,0,0,0,0,0
				c-0.3,0.2-0.6,0.3-0.6,0.3c-0.1,0-0.3,0-0.4-0.1c-0.1-0.1-0.1-0.3-0.1-0.4c0,0,0.1-0.2,0.3-0.5c-0.3,0-0.6,0-0.8-0.1
				c-0.6-0.1-1-0.2-1.1-0.2c-0.2,0-0.3-0.2-0.3-0.4c0-0.2,0.1-0.3,0.3-0.4c0,0,0.4-0.1,1.1-0.2c0.2,0,0.5-0.1,0.8-0.1
				c-0.2-0.2-0.3-0.4-0.3-0.5c-0.1-0.1,0-0.3,0.1-0.4c0.1-0.1,0.2-0.2,0.4-0.1c0,0,0.3,0.1,0.6,0.3c0,0,0,0,0,0c0-0.4,0.1-0.7,0.1-1
				c0.1-0.6,0.2-1,0.2-1.1c0-0.2,0.2-0.3,0.4-0.3l0,0c0.2,0,0.3,0.1,0.4,0.3c0,0,0.1,0.4,0.2,1.1c0,0.3,0.1,0.6,0.1,1c0,0,0,0,0,0
				c0.3-0.2,0.6-0.3,0.6-0.3c0.1,0,0.3,0,0.4,0.1c0.1,0.1,0.1,0.3,0.1,0.4c0,0-0.1,0.2-0.3,0.4c0.3,0,0.6,0,0.8,0.1
				c0.6,0.1,1,0.2,1.1,0.2c0.2,0,0.3,0.2,0.3,0.4c0,0.2-0.1,0.3-0.3,0.4c0,0-0.4,0.1-1.1,0.2c-0.2,0-0.5,0.1-0.8,0.1
				c0.2,0.2,0.3,0.4,0.3,0.4c0.1,0.1,0,0.3-0.1,0.4c-0.1,0.1-0.2,0.2-0.4,0.1c0,0-0.3-0.1-0.6-0.3c0,0,0,0,0,0c0,0.4-0.1,0.7-0.1,1
				c-0.1,0.6-0.2,1-0.2,1.1C189.1,20.7,188.9,20.8,188.7,20.8L188.7,20.8z M188.4,17.5c0.1,0,0.1,0,0.2,0c0.1,0,0.1,0.1,0.1,0.1
				c0,0,0.1-0.1,0.1-0.1c0.1,0,0.2,0,0.2,0c0,0,0-0.1,0-0.1c0-0.1,0.1-0.1,0.1-0.2c-0.1,0-0.1-0.1-0.1-0.2c0,0,0-0.1,0-0.1
				c-0.1,0-0.2,0-0.2,0c-0.1,0-0.1-0.1-0.1-0.1c0,0-0.1,0.1-0.1,0.1c-0.1,0-0.2,0-0.2,0c0,0,0,0.1,0,0.1c0,0.1-0.1,0.1-0.1,0.2
				c0.1,0,0.1,0.1,0.1,0.2C188.4,17.4,188.4,17.4,188.4,17.5C188.4,17.5,188.4,17.5,188.4,17.5z"/>
		</g>
	</g>
	<ellipse class="st0" cx="188.8" cy="17.3" rx="0.8" ry="0.7"/>
</g>
<g>
	<g>
		<g>
			<path class="st0" d="M18.3,23.3c-0.1,0-0.2-0.1-0.2-0.2c0,0-0.1-0.3-0.1-0.7c0-0.2,0-0.4-0.1-0.7c0,0,0,0,0,0
				c-0.2,0.1-0.4,0.2-0.4,0.2c-0.1,0-0.2,0-0.3-0.1c-0.1-0.1-0.1-0.2,0-0.3c0,0,0.1-0.1,0.2-0.3c-0.2,0-0.4,0-0.6-0.1
				C16.3,21.1,16,21,16,21c-0.1,0-0.2-0.1-0.2-0.2s0.1-0.2,0.2-0.2c0,0,0.3-0.1,0.7-0.1c0.2,0,0.3,0,0.5-0.1
				c-0.1-0.2-0.2-0.3-0.2-0.3c0-0.1,0-0.2,0-0.3c0.1-0.1,0.2-0.1,0.3-0.1c0,0,0.2,0.1,0.4,0.2c0,0,0,0,0,0c0-0.2,0-0.5,0.1-0.7
				c0.1-0.4,0.1-0.7,0.1-0.7c0-0.1,0.1-0.2,0.2-0.2l0,0c0.1,0,0.2,0.1,0.2,0.2c0,0,0.1,0.3,0.1,0.7c0,0.2,0,0.4,0.1,0.7c0,0,0,0,0,0
				c0.2-0.1,0.4-0.2,0.4-0.2c0.1,0,0.2,0,0.3,0.1c0.1,0.1,0.1,0.2,0,0.3c0,0-0.1,0.1-0.2,0.3c0.2,0,0.4,0,0.6,0.1
				c0.4,0.1,0.7,0.1,0.7,0.1c0.1,0,0.2,0.1,0.2,0.2c0,0.1-0.1,0.2-0.2,0.2c0,0-0.3,0.1-0.7,0.1c-0.2,0-0.3,0-0.5,0.1
				c0.1,0.2,0.2,0.3,0.2,0.3c0,0.1,0,0.2,0,0.3c-0.1,0.1-0.2,0.1-0.3,0.1c0,0-0.2-0.1-0.4-0.2c0,0,0,0,0,0c0,0.2,0,0.5-0.1,0.7
				c-0.1,0.4-0.1,0.7-0.1,0.7C18.5,23.2,18.4,23.3,18.3,23.3L18.3,23.3z M18.1,21c0,0,0.1,0,0.1,0c0,0,0.1,0,0.1,0.1
				c0,0,0.1-0.1,0.1-0.1c0,0,0.1,0,0.2,0c0,0,0-0.1,0-0.1c0,0,0-0.1,0.1-0.1c0,0-0.1-0.1-0.1-0.1c0,0,0-0.1,0-0.1
				c-0.1,0-0.1,0-0.2,0c0,0-0.1,0-0.1-0.1c0,0-0.1,0.1-0.1,0.1c-0.1,0-0.1,0-0.2,0c0,0,0,0.1,0,0.1c0,0,0,0.1-0.1,0.1
				C17.9,20.8,18,20.9,18.1,21C18,20.9,18,21,18.1,21C18,21,18,21,18.1,21z"/>
		</g>
	</g>
	<g>
		<ellipse class="st0" cx="18.3" cy="20.8" rx="0.5" ry="0.5"/>
	</g>
</g>
<g>
	<g>
		<g>
			<path class="st0" d="M5.3,19.8c-0.2,0-0.3-0.1-0.4-0.3c0,0-0.1-0.4-0.2-1.1c0-0.3-0.1-0.6-0.1-1c0,0,0,0,0,0
				C4.3,17.6,4,17.7,4,17.7c-0.1,0-0.3,0-0.4-0.1c-0.1-0.1-0.1-0.3-0.1-0.4c0,0,0.1-0.2,0.3-0.5c-0.3,0-0.6,0-0.8-0.1
				c-0.6-0.1-1-0.2-1.1-0.2c-0.2,0-0.3-0.2-0.3-0.4c0-0.2,0.1-0.3,0.3-0.4c0,0,0.4-0.1,1.1-0.2c0.2,0,0.5-0.1,0.8-0.1
				c-0.2-0.2-0.3-0.4-0.3-0.5c-0.1-0.1,0-0.3,0.1-0.4c0.1-0.1,0.2-0.2,0.4-0.1c0,0,0.3,0.1,0.6,0.3c0,0,0,0,0,0c0-0.4,0.1-0.7,0.1-1
				c0.1-0.6,0.2-1,0.2-1.1c0-0.2,0.2-0.3,0.4-0.3l0,0c0.2,0,0.3,0.1,0.4,0.3c0,0,0.1,0.4,0.2,1.1c0,0.3,0.1,0.6,0.1,1c0,0,0,0,0,0
				c0.3-0.2,0.6-0.3,0.6-0.3c0.1,0,0.3,0,0.4,0.1C7,14.8,7.1,14.9,7,15.1c0,0-0.1,0.2-0.3,0.4c0.3,0,0.6,0,0.8,0.1
				c0.6,0.1,1,0.2,1.1,0.2c0.2,0,0.3,0.2,0.3,0.4c0,0.2-0.1,0.3-0.3,0.4c0,0-0.4,0.1-1.1,0.2c-0.2,0-0.5,0.1-0.8,0.1
				C6.9,17,7,17.2,7,17.2c0.1,0.1,0,0.3-0.1,0.4c-0.1,0.1-0.2,0.2-0.4,0.1c0,0-0.3-0.1-0.6-0.3c0,0,0,0,0,0c0,0.4-0.1,0.7-0.1,1
				c-0.1,0.6-0.2,1-0.2,1.1C5.6,19.6,5.4,19.8,5.3,19.8L5.3,19.8z M5,16.4c0.1,0,0.1,0,0.2,0c0.1,0,0.1,0.1,0.1,0.1
				c0,0,0.1-0.1,0.1-0.1c0.1,0,0.2,0,0.2,0c0,0,0-0.1,0-0.1c0-0.1,0.1-0.1,0.1-0.2c-0.1,0-0.1-0.1-0.1-0.2c0,0,0-0.1,0-0.1
				c-0.1,0-0.2,0-0.2,0c-0.1,0-0.1-0.1-0.1-0.1c0,0-0.1,0.1-0.1,0.1c-0.1,0-0.2,0-0.2,0c0,0,0,0.1,0,0.1c0,0.1-0.1,0.1-0.1,0.2
				c0.1,0,0.1,0.1,0.1,0.2C4.9,16.3,4.9,16.4,5,16.4C4.9,16.4,4.9,16.4,5,16.4z"/>
		</g>
	</g>
	<g>
		<ellipse class="st0" cx="5.3" cy="16.2" rx="0.8" ry="0.7"/>
	</g>
</g>
<g>
	<g>
		<g>
			<path class="st0" d="M17.7,9.5c-0.2,0-0.3-0.1-0.4-0.3c0,0-0.1-0.4-0.2-1.1c0-0.3-0.1-0.6-0.1-1c0,0,0,0,0,0
				c-0.3,0.2-0.6,0.3-0.6,0.3c-0.1,0-0.3,0-0.4-0.1C16,7.2,15.9,7,16,6.9c0,0,0.1-0.2,0.3-0.5c-0.3,0-0.6,0-0.8-0.1
				c-0.6-0.1-1-0.2-1.1-0.2c-0.2,0-0.3-0.2-0.3-0.4s0.1-0.3,0.3-0.4c0,0,0.4-0.1,1.1-0.2c0.2,0,0.5-0.1,0.8-0.1
				C16.1,5,16,4.8,16,4.8c-0.1-0.1,0-0.3,0.1-0.4c0.1-0.1,0.2-0.2,0.4-0.1c0,0,0.3,0.1,0.6,0.3c0,0,0,0,0,0c0-0.4,0.1-0.7,0.1-1
				c0.1-0.6,0.2-1,0.2-1.1c0-0.2,0.2-0.3,0.4-0.3l0,0c0.2,0,0.3,0.1,0.4,0.3c0,0,0.1,0.4,0.2,1.1c0,0.3,0.1,0.6,0.1,1c0,0,0,0,0,0
				C18.8,4.4,19,4.3,19,4.3c0.1,0,0.3,0,0.4,0.1s0.1,0.3,0.1,0.4c0,0-0.1,0.2-0.3,0.4c0.3,0,0.6,0,0.8,0.1c0.6,0.1,1,0.2,1.1,0.2
				c0.2,0,0.3,0.2,0.3,0.4c0,0.2-0.1,0.3-0.3,0.4c0,0-0.4,0.1-1.1,0.2c-0.2,0-0.5,0.1-0.8,0.1c0.2,0.2,0.3,0.4,0.3,0.4
				c0.1,0.1,0,0.3-0.1,0.4c-0.1,0.1-0.2,0.2-0.4,0.1c0,0-0.3-0.1-0.6-0.3c0,0,0,0,0,0c0,0.4-0.1,0.7-0.1,1c-0.1,0.6-0.2,1-0.2,1.1
				C18.1,9.4,17.9,9.5,17.7,9.5L17.7,9.5z M17.4,6.1c0.1,0,0.1,0,0.2,0c0.1,0,0.1,0.1,0.1,0.1c0,0,0.1-0.1,0.1-0.1
				c0.1,0,0.2,0,0.2,0c0,0,0-0.1,0-0.1c0-0.1,0.1-0.1,0.1-0.2c-0.1,0-0.1-0.1-0.1-0.2c0,0,0-0.1,0-0.1c-0.1,0-0.2,0-0.2,0
				c-0.1,0-0.1-0.1-0.1-0.1c0,0-0.1,0.1-0.1,0.1c-0.1,0-0.2,0-0.2,0c0,0,0,0.1,0,0.1c0,0.1-0.1,0.1-0.1,0.2c0.1,0,0.1,0.1,0.1,0.2
				C17.4,6,17.4,6.1,17.4,6.1C17.4,6.1,17.4,6.1,17.4,6.1z"/>
		</g>
	</g>
	<g>
		<ellipse class="st0" cx="17.8" cy="5.9" rx="0.8" ry="0.7"/>
	</g>
</g>
<g>
	<g>
		<g>
			<path class="st0" d="M196.5,28.7c-0.1,0-0.2-0.1-0.2-0.2c0,0-0.1-0.3-0.1-0.7c0-0.2,0-0.4-0.1-0.7c0,0,0,0,0,0
				c-0.2,0.1-0.4,0.2-0.4,0.2c-0.1,0-0.2,0-0.3-0.1c-0.1-0.1-0.1-0.2,0-0.3c0,0,0.1-0.1,0.2-0.3c-0.2,0-0.4,0-0.6-0.1
				c-0.4-0.1-0.7-0.1-0.7-0.1c-0.1,0-0.2-0.1-0.2-0.2c0-0.1,0.1-0.2,0.2-0.2c0,0,0.3-0.1,0.7-0.1c0.2,0,0.3,0,0.5-0.1
				c-0.1-0.2-0.2-0.3-0.2-0.3c0-0.1,0-0.2,0-0.3c0.1-0.1,0.2-0.1,0.3-0.1c0,0,0.2,0.1,0.4,0.2c0,0,0,0,0,0c0-0.2,0-0.5,0.1-0.7
				c0.1-0.4,0.1-0.7,0.1-0.7c0-0.1,0.1-0.2,0.2-0.2l0,0c0.1,0,0.2,0.1,0.2,0.2c0,0,0.1,0.3,0.1,0.7c0,0.2,0,0.4,0.1,0.7c0,0,0,0,0,0
				c0.2-0.1,0.4-0.2,0.4-0.2c0.1,0,0.2,0,0.3,0.1c0.1,0.1,0.1,0.2,0,0.3c0,0-0.1,0.1-0.2,0.3c0.2,0,0.4,0,0.6,0.1
				c0.4,0.1,0.7,0.1,0.7,0.1c0.1,0,0.2,0.1,0.2,0.2c0,0.1-0.1,0.2-0.2,0.2c0,0-0.3,0.1-0.7,0.1c-0.2,0-0.3,0-0.5,0.1
				c0.1,0.2,0.2,0.3,0.2,0.3c0,0.1,0,0.2,0,0.3c-0.1,0.1-0.2,0.1-0.3,0.1c0,0-0.2-0.1-0.4-0.2c0,0,0,0,0,0c0,0.2,0,0.5-0.1,0.7
				c-0.1,0.4-0.1,0.7-0.1,0.7C196.7,28.6,196.6,28.7,196.5,28.7L196.5,28.7z M196.3,26.4c0,0,0.1,0,0.1,0c0,0,0.1,0,0.1,0.1
				c0,0,0.1-0.1,0.1-0.1c0,0,0.1,0,0.2,0c0,0,0-0.1,0-0.1c0,0,0-0.1,0.1-0.1c0,0-0.1-0.1-0.1-0.1c0,0,0-0.1,0-0.1
				c-0.1,0-0.1,0-0.2,0c0,0-0.1,0-0.1-0.1c0,0-0.1,0.1-0.1,0.1c-0.1,0-0.1,0-0.2,0c0,0,0,0.1,0,0.1c0,0,0,0.1-0.1,0.1
				C196.2,26.3,196.2,26.3,196.3,26.4C196.2,26.4,196.2,26.4,196.3,26.4C196.3,26.4,196.3,26.4,196.3,26.4z"/>
		</g>
	</g>
	<g>
		<ellipse class="st0" cx="196.5" cy="26.3" rx="0.5" ry="0.5"/>
	</g>
</g>
</svg>
