<?xml version="1.0" encoding="utf-8"?>
<!-- Generator: Adobe Illustrator 20.1.0, SVG Export Plug-In . SVG Version: 6.00 Build 0)  -->
<svg version="1.1" id="Layer_1" xmlns="http://www.w3.org/2000/svg" xmlns:xlink="http://www.w3.org/1999/xlink" x="0px" y="0px"
	 viewBox="0 0 24 24" style="enable-background:new 0 0 24 24;" xml:space="preserve">
<style type="text/css">
	.st0{fill:#CCCCCB;}
</style>
<g>
	<path class="st0" d="M12,23.6c-0.5,0-1-0.4-1.1-0.9c0-0.1-0.4-1.4-0.6-3.4c-0.1-0.9-0.2-2-0.3-3.2c0,0-0.1,0-0.1,0.1
		c-1.1,0.6-2,0.9-2,0.9c-0.4,0.1-0.9,0-1.2-0.3c-0.3-0.3-0.4-0.8-0.2-1.3c0,0,0.3-0.6,0.8-1.4c-0.9-0.1-1.8-0.2-2.6-0.3
		c-2-0.2-3.3-0.6-3.4-0.6C0.8,13,0.4,12.5,0.4,12c0-0.5,0.4-1,0.9-1.1c0.1,0,1.4-0.4,3.4-0.6c0.8-0.1,1.6-0.2,2.6-0.3
		C6.8,9.2,6.5,8.6,6.5,8.6C6.3,8.2,6.3,7.7,6.6,7.3C7,7,7.4,6.8,7.9,7c0,0,0.9,0.3,2,0.9c0,0,0.1,0,0.1,0.1c0.1-1.2,0.2-2.3,0.3-3.2
		c0.2-2,0.6-3.3,0.6-3.4C11,0.8,11.5,0.4,12,0.4l0,0c0.5,0,1,0.4,1.1,0.9c0,0.1,0.4,1.4,0.6,3.4c0.1,0.9,0.2,2,0.3,3.2
		c0,0,0.1,0,0.1-0.1c1.1-0.6,2-0.9,2-0.9c0.4-0.1,0.9,0,1.2,0.3c0.3,0.3,0.4,0.8,0.2,1.3c0,0-0.3,0.6-0.8,1.4
		c0.9,0.1,1.8,0.2,2.6,0.3c2,0.2,3.3,0.6,3.4,0.6c0.5,0.1,0.9,0.6,0.9,1.1c0,0.5-0.4,1-0.9,1.1c-0.1,0-1.4,0.4-3.4,0.6
		c-0.8,0.1-1.6,0.2-2.6,0.3c0.5,0.8,0.8,1.4,0.8,1.4c0.2,0.4,0.1,0.9-0.2,1.3c-0.3,0.3-0.8,0.5-1.2,0.4c0,0-0.9-0.3-2-0.9
		c0,0-0.1,0-0.1,0c-0.1,1.2-0.2,2.3-0.3,3.2c-0.2,2-0.6,3.3-0.6,3.4C13,23.2,12.5,23.6,12,23.6L12,23.6z M11,12.8
		c0.2,0,0.4,0,0.5,0.1c0.2,0.1,0.3,0.2,0.4,0.4c0.1-0.2,0.3-0.3,0.4-0.4c0.2-0.1,0.5-0.1,0.7-0.1c0-0.1,0-0.3,0.1-0.4
		c0.1-0.2,0.2-0.4,0.4-0.5c-0.2-0.1-0.3-0.3-0.4-0.5c-0.1-0.1-0.1-0.2-0.1-0.4c-0.3,0-0.5,0-0.7-0.1c-0.2-0.1-0.3-0.2-0.4-0.4
		c-0.1,0.2-0.3,0.3-0.4,0.4c-0.2,0.1-0.5,0.1-0.7,0.1c0,0.1,0,0.3-0.1,0.4c-0.1,0.2-0.2,0.4-0.4,0.5c0.2,0.1,0.3,0.3,0.4,0.5
		c0.1,0.1,0.1,0.2,0.1,0.4C10.9,12.8,11,12.8,11,12.8z"/>
</g>
</svg>
